<?xml version="1.0" standalone="no"?><!DOCTYPE svg PUBLIC "-//W3C//DTD SVG 1.1//EN" "http://www.w3.org/Graphics/SVG/1.1/DTD/svg11.dtd"><svg t="1624758239203" class="icon" viewBox="0 0 1024 1024" version="1.1" xmlns="http://www.w3.org/2000/svg" p-id="1403" xmlns:xlink="http://www.w3.org/1999/xlink" width="200" height="200"><defs><style type="text/css"></style></defs><path d="M544 82.464l323.968 187.072a64 64 0 0 1 32 55.424v374.08a64 64 0 0 1-32 55.424L544 941.536a64 64 0 0 1-64 0L156.032 754.464a64 64 0 0 1-32-55.424v-374.08a64 64 0 0 1 32-55.424L480 82.464a64 64 0 0 1 64 0z m266.56 253.536a32 32 0 0 0-40.384-13.408l-3.328 1.696L512 471.392l-254.816-147.104a32 32 0 0 0-35.136 53.376l3.136 2.048L480 526.848V816a32 32 0 0 0 63.776 3.744L544 816v-289.152l254.848-147.136a32 32 0 0 0 11.712-43.712z" fill="#B19C4A" p-id="1404"></path></svg>